HIERARCHY
ROOT Hips
{
 OFFSET 0.000000 0.000000 0.000000
 CHANNELS 6 Xposition Yposition Zposition Yrotation Xrotation Zrotation
 JOINT Chest
 {
  OFFSET 0.000000 8.841881 -6.654894
  CHANNELS 3 Yrotation Xrotation Zrotation
  JOINT Chest2
  {
   OFFSET 0.000000 7.072353 0.028336
   CHANNELS 3 Yrotation Xrotation Zrotation
   JOINT Chest3
   {
    OFFSET 0.000000 10.125157 -0.014641
    CHANNELS 3 Yrotation Xrotation Zrotation
    JOINT Chest4
    {
     OFFSET 0.000000 10.441534 -0.016102
     CHANNELS 3 Yrotation Xrotation Zrotation
     JOINT Neck
     {
      OFFSET 0.000000 16.849355 0.013667
      CHANNELS 3 Yrotation Xrotation Zrotation
      JOINT Head
      {
       OFFSET 0.000000 10.107081 0.000000
       CHANNELS 3 Yrotation Xrotation Zrotation
       End Site
       {
        OFFSET 0.000000 15.162723 0.000000
       }
      }
     }
     JOINT RightCollar
     {
      OFFSET -2.775264 10.553866 0.006834
      CHANNELS 3 Yrotation Xrotation Zrotation
      JOINT RightShoulder
      {
       OFFSET -16.020521 0.000000 0.000000
       CHANNELS 3 Yrotation Xrotation Zrotation
       JOINT RightElbow
       {
        OFFSET -23.902096 0.000000 0.000000
        CHANNELS 3 Yrotation Xrotation Zrotation
        JOINT RightWrist
        {
         OFFSET -23.631001 0.000000 -0.000566
         CHANNELS 3 Yrotation Xrotation Zrotation
         End Site
         {
          OFFSET -18.828190 0.690323 0.103033
         }
        }
       }
      }
     }
     JOINT LeftCollar
     {
      OFFSET 2.775264 10.553866 0.006834
      CHANNELS 3 Yrotation Xrotation Zrotation
      JOINT LeftShoulder
      {
       OFFSET 16.020521 0.000000 0.000000
       CHANNELS 3 Yrotation Xrotation Zrotation
       JOINT LeftElbow
       {
        OFFSET 23.902096 0.000000 0.000000
        CHANNELS 3 Yrotation Xrotation Zrotation
        JOINT LeftWrist
        {
         OFFSET 23.631001 0.000000 -0.000566
         CHANNELS 3 Yrotation Xrotation Zrotation
         End Site
         {
          OFFSET 18.828190 0.690323 0.103033
         }
        }
       }
      }
     }
    }
   }
  }
 }
 JOINT RightHip
 {
  OFFSET -9.646452 0.046004 -0.007286
  CHANNELS 3 Yrotation Xrotation Zrotation
  JOINT RightKnee
  {
   OFFSET 0.000000 -48.923989 0.009793
   CHANNELS 3 Yrotation Xrotation Zrotation
   JOINT RightAnkle
   {
    OFFSET 0.000000 -37.831989 0.111451
    CHANNELS 3 Yrotation Xrotation Zrotation
    JOINT RightToe
    {
     OFFSET 0.000000 -8.084683 17.519885
     CHANNELS 3 Yrotation Xrotation Zrotation
     End Site
     {
      OFFSET 0.000000 -1.047441 5.170765
     }
    }
   }
  }
 }
 JOINT LeftHip
 {
  OFFSET 9.646452 0.044016 -0.006971
  CHANNELS 3 Yrotation Xrotation Zrotation
  JOINT LeftKnee
  {
   OFFSET 0.000000 -48.923989 0.009793
   CHANNELS 3 Yrotation Xrotation Zrotation
   JOINT LeftAnkle
   {
    OFFSET 0.000000 -37.831989 0.111451
    CHANNELS 3 Yrotation Xrotation Zrotation
    JOINT LeftToe
    {
     OFFSET 0.000000 -8.084683 17.519885
     CHANNELS 3 Yrotation Xrotation Zrotation
     End Site
     {
      OFFSET 0.000000 -1.047441 5.170765
     }
    }
   }
  }
 }
}
MOTION
Frames: 5
Frame Time: 0.004167
12.239224 91.332683 66.472673 14.655637 23.367210 -0.490388 4.058863 7.967435 -1.263105 2.090950 -9.213617 -0.735064 1.446225 2.290394 -0.221390 0.402668 9.890797 -0.072222 -2.305830 -4.249167 -0.195984 -4.284676 -7.894936 -0.227741 -0.816262 -7.164438 2.845364 -2.962646 -22.933775 62.073630 58.155433 -6.751850 14.262374 3.745133 3.614618 -4.940580 3.761964 -6.967111 -4.558043 14.748397 10.804623 -59.240522 -13.803614 1.653581 -7.678132 -5.831792 13.547308 -3.000846 -2.563880 -13.496519 -0.052142 -8.906174 55.010928 0.245932 -11.439306 -3.880075 5.230031 -0.020798 1.926023 -0.455588 9.404809 -36.618845 -5.720190 5.118784 49.378844 -1.407874 14.091378 -24.371558 -0.800669 0.109089 -5.654862 -0.730018
12.360508 91.047331 67.068107 14.949102 23.237065 -0.298207 3.860669 8.067859 -1.385042 2.009254 -9.127477 -0.787802 1.390165 2.330364 -0.270692 0.384599 9.882761 -0.086318 -2.297834 -4.299996 -0.133701 -4.273721 -7.987303 -0.110540 -0.747910 -7.098887 2.936231 -2.778326 -22.637154 62.297208 57.769281 -6.804688 14.023254 3.550507 3.586475 -4.860369 3.536926 -7.033280 -4.502222 14.285533 10.455930 -59.718283 -14.054259 1.282824 -7.646268 -6.090049 13.564842 -2.867050 -3.022293 -14.198356 -0.275159 -8.742860 56.954945 0.052128 -11.993312 -5.351717 4.831792 -0.003567 1.696484 -0.410296 9.857550 -36.175177 -6.099002 3.453263 49.843178 -2.328719 14.693736 -25.307888 -0.558038 0.102990 -4.716279 -0.605113
12.483465 90.761773 67.665369 15.243710 23.101998 -0.107650 3.656793 8.168458 -1.504639 1.924603 -9.040749 -0.839136 1.332034 2.370581 -0.319371 0.365942 9.874634 -0.100193 -2.286383 -4.350853 -0.070707 -4.256480 -8.079729 0.007780 -0.672994 -7.025910 3.027659 -2.573485 -22.328271 62.517930 57.308378 -6.850937 13.767628 3.325117 3.553276 -4.787475 3.309570 -7.098733 -4.449951 13.808833 10.074818 -60.206110 -14.334052 0.931597 -7.631162 -6.341717 13.574500 -2.742667 -3.507764 -14.923233 -0.489038 -8.562513 58.856269 -0.160676 -12.578504 -6.826222 4.453035 0.009658 1.372978 -0.339540 10.303807 -35.713185 -6.469058 1.756474 50.280343 -3.259856 15.292246 -26.260487 -0.333017 0.091134 -3.748525 -0.477312
12.608609 90.480267 68.264787 15.537657 22.966084 0.075430 3.449901 8.266816 -1.617913 1.837834 -8.955497 -0.887231 1.272398 2.410092 -0.366001 0.346921 9.866611 -0.113438 -2.272230 -4.400500 -0.007835 -4.234291 -8.169947 0.125660 -0.592706 -6.946990 3.117829 -2.355298 -22.007480 62.730156 56.776644 -6.886654 13.507963 3.078247 3.517565 -4.719721 3.081358 -7.163673 -4.407113 13.323257 9.657092 -60.694307 -14.647584 0.609280 -7.637574 -6.582853 13.576727 -2.630047 -4.007572 -15.675069 -0.691977 -8.392455 60.696259 -0.402060 -13.170900 -8.270267 4.104780 0.016368 1.003006 -0.253552 10.729587 -35.233930 -6.817303 0.089112 50.677806 -4.162992 15.862484 -27.211222 -0.128270 0.074709 -2.795211 -0.352941
12.736452 90.207072 68.866693 15.829221 22.833462 0.245260 3.242670 8.360554 -1.720840 1.749781 -8.873779 -0.930239 1.211825 2.447950 -0.409150 0.327763 9.858889 -0.125644 -2.256112 -4.447697 0.054073 -4.208463 -8.255688 0.241536 -0.508271 -6.863597 3.204937 -2.131080 -21.675018 62.928285 56.177842 -6.907318 13.256620 2.819190 3.481903 -4.654867 2.853753 -7.228405 -4.379610 12.833656 9.198984 -61.173195 -14.999219 0.325031 -7.670644 -6.809541 13.571704 -2.531531 -4.509169 -16.457542 -0.882274 -8.263306 62.456214 -0.685350 -13.745718 -9.650608 3.795290 0.016129 0.633870 -0.163665 11.121438 -34.738911 -7.131308 -1.485288 51.025044 -4.997113 16.379609 -28.142287 0.054085 0.055272 -1.899998 -0.237846
